<svg width="100" height="100" viewBox="0 0 100 100" xmlns="http://www.w3.org/2000/svg">
  <path d="M0 0h100v100H0z" fill="none"/>
  <path d="M0 0h1v1H0z" fill="rgba(0, 255, 255, 0.1)"/>
  <path d="M0 99h1v1H0z" fill="rgba(0, 255, 255, 0.1)"/>
  <path d="M99 0h1v1h-1z" fill="rgba(0, 255, 255, 0.1)"/>
  <path d="M99 99h1v1h-1z" fill="rgba(0, 255, 255, 0.1)"/>
  <path d="M0 20h100v1H0z" fill="rgba(0, 255, 255, 0.1)"/>
  <path d="M0 40h100v1H0z" fill="rgba(0, 255, 255, 0.1)"/>
  <path d="M0 60h100v1H0z" fill="rgba(0, 255, 255, 0.1)"/>
  <path d="M0 80h100v1H0z" fill="rgba(0, 255, 255, 0.1)"/>
  <path d="M20 0h1v100h-1z" fill="rgba(0, 255, 255, 0.1)"/>
  <path d="M40 0h1v100h-1z" fill="rgba(0, 255, 255, 0.1)"/>
  <path d="M60 0h1v100h-1z" fill="rgba(0, 255, 255, 0.1)"/>
  <path d="M80 0h1v100h-1z" fill="rgba(0, 255, 255, 0.1)"/>
</svg>