<svg width="400" height="225" viewBox="0 0 400 225" fill="none" xmlns="http://www.w3.org/2000/svg">
  <rect width="400" height="225" fill="#0F0F23"/>
  <path d="M200 112.5C200 129.069 186.569 142.5 170 142.5C153.431 142.5 140 129.069 140 112.5C140 95.9314 153.431 82.5 170 82.5C186.569 82.5 200 95.9314 200 112.5Z" stroke="#00FFFF" stroke-width="2"/>
  <path d="M260 112.5C260 129.069 246.569 142.5 230 142.5C213.431 142.5 200 129.069 200 112.5C200 95.9314 213.431 82.5 230 82.5C246.569 82.5 260 95.9314 260 112.5Z" stroke="#7928CA" stroke-width="2"/>
  <rect x="140" y="82.5" width="120" height="60" stroke="#FF00FF" stroke-width="2"/>
  <text x="200" y="170" font-family="monospace" font-size="14" fill="#FFFFFF" text-anchor="middle">Project Image</text>
</svg>